<?xml version="1.0" encoding="UTF-8" standalone="no"?><!DOCTYPE svg PUBLIC "-//W3C//DTD SVG 1.1//EN" "http://www.w3.org/Graphics/SVG/1.1/DTD/svg11.dtd"><svg width="100%" height="100%" viewBox="0 0 6250 4167" version="1.1" xmlns="http://www.w3.org/2000/svg" xmlns:xlink="http://www.w3.org/1999/xlink" xml:space="preserve" xmlns:serif="http://www.serif.com/" style="fill-rule:evenodd;clip-rule:evenodd;stroke-linecap:round;stroke-linejoin:round;stroke-miterlimit:1.5;"><path d="M1250,416.667l-1041.67,-0l0,3541.67l5833.33,0l-0,-3541.67l-1041.67,-0" style="fill:none;stroke:#28aae1;stroke-width:208.33px;"/><path d="M2048.83,3541.45l1562.43,-0c392.115,-0 589.908,-156.088 589.908,-471.831l0,-462.157c0,-315.742 -197.793,-471.828 -589.908,-471.828l-868.424,0l-0,-469.184l1319.53,0l-0,-416.232l-2013.54,-0l0,1301.65l1336.73,-0c79.906,-0 121.599,31.27 121.599,97.293l0,378.761c0,66.022 -41.693,97.296 -121.599,97.296l-1336.73,0l0,416.233Z" style="fill:#fff;fill-rule:nonzero;"/><g><path d="M1966.72,758.281l408.317,0c94.108,0 141.579,-37.461 141.579,-113.239l-0,-110.918c-0,-75.778 -47.471,-113.239 -141.579,-113.239l-212.574,0c-19.176,0 -29.181,-7.507 -29.181,-23.355l0,-65.894c0,-15.848 10.005,-23.355 29.181,-23.355l312.512,0l-0,-99.896l-366.677,0c-94.108,0 -141.578,37.461 -141.578,113.241l-0,85.914c-0,75.78 47.47,113.241 141.578,113.241l212.576,0c19.176,0 29.179,7.505 29.179,23.351l0,90.902c0,15.846 -10.003,23.351 -29.179,23.351l-354.154,0l-0,99.896Z" style="fill:#fff;fill-rule:nonzero;"/><path d="M2558.39,308.281l225,0l0,450l166.563,0l-0,-450l225,0l-0,-99.896l-616.563,0l0,99.896Z" style="fill:#fff;fill-rule:nonzero;"/><path d="M3095.83,758.281l163.334,0l50,-116.666l256.666,-0l50,116.666l163.334,0l-237.5,-549.896l-208.334,0l-237.5,549.896Zm256.667,-216.562l85,-195.834l85,195.834l-170,-0Z" style="fill:#fff;fill-rule:nonzero;"/><path d="M3700.05,308.281l225,0l0,450l166.563,0l-0,-450l225,0l-0,-99.896l-616.563,0l0,99.896Z" style="fill:#fff;fill-rule:nonzero;"/></g></svg>