<?xml version="1.0" encoding="UTF-8"?>
<svg version="1.1" viewBox="0 0 512 512" xml:space="preserve" xmlns="http://www.w3.org/2000/svg"><g><ellipse cx="256" cy="256" rx="256" ry="256" fill="#a079ff"/><circle cx="256" cy="256" r="240" fill="#262626"/></g><path d="m256 168-64 64v80l64 64 64-64v-80z" fill="#121212"/><g stroke-linejoin="round" stroke-width="16"><path d="m256 168-64 64v80l64 64 64-64v-80z" fill="none" stroke="#a079ff" stroke-linecap="round"/><path d="m256 168-1e-5 33.941-40 40-24-9.9414z" fill="#fff" stroke="#fff"/><path d="m256 376 1e-5 -33.941 40-40 24 9.9414z" fill="#a079ff" stroke="#a079ff"/></g><g><g fill="#b2b2b2"><path d="m29.84 376 0.0039 8e-3c5.9423 11.148 12.702 21.842 20.223 31.992h93.934c4.432 0 8-3.568 8-8v-16c0-4.432-3.568-8-8-8z"/><path d="m482.16 376-4e-3 8e-3c-5.9422 11.148-12.702 21.842-20.223 31.992h-93.934c-4.432 0-8-3.568-8-8v-16c0-4.432 3.568-8 8-8z"/><rect x="104" y="336" width="48" height="32" rx="8" ry="8"/><rect x="104" y="296" width="48" height="32" rx="8" ry="8"/><rect x="64" y="256" width="88" height="32" rx="8" ry="8"/><rect x="104" y="216" width="48" height="32" rx="8" ry="8"/><rect x="360" y="336" width="48" height="32" rx="8" ry="8"/><rect x="360" y="296" width="48" height="32" rx="8" ry="8"/><rect x="360" y="256" width="88" height="32" rx="8" ry="8"/><rect x="360" y="216" width="48" height="32" rx="8" ry="8"/><path transform="translate(-1.5313e-5 16)" d="m109.8 161.11c-2.0984 7.5133-3.6153 15.177-4.5372 22.923-0.52212 4.3868 2.8457 7.9651 7.264 7.9651h32.105c4.4183 0 8.2948-3.576 9.0336-7.931 0.46457-2.7383 1.0386-5.4569 1.7208-8.1492 1.085-4.2819-1.1453-8.7785-5.3473-10.144l-30.277-9.8372c-4.202-1.3653-8.7738 0.91799-9.9622 5.1729z"/><path transform="translate(-1.5313e-5 16)" d="m392.93 155.71-30.654 9.96c-4.202 1.3653-6.4374 5.8638-5.3588 10.147 0.68584 2.7239 1.261 5.4745 1.7242 8.245 0.72834 4.3567 4.5962 7.9334 9.0145 7.9334h32.109c4.4183 0 7.8274-3.5806 7.356-7.9731-0.83763-7.8048-2.2786-15.533-4.3099-23.115-1.1432-4.2673-5.679-6.5626-9.8811-5.1973z"/><path transform="translate(-1.5313e-5 16)" d="m128.82 118.43c-4.1309 6.4248-7.7717 13.152-10.891 20.124-1.8043 4.0325 0.33266 8.4916 4.5347 9.8569l30.375 9.8686c4.2021 1.3652 8.9312-0.86347 10.906-4.8149 1.1756-2.3528 2.44-4.6603 3.7905-6.9172 2.2681-3.7904 1.4699-8.8054-2.1046-11.402l-25.636-18.625c-3.5745-2.597-8.5846-1.806-10.974 1.91z"/><path transform="translate(-1.5313e-5 16)" d="m372.61 116.22-25.872 18.798c-3.5744 2.5971-4.328 7.5795-2.0018 11.335 1.4088 2.2741 2.7293 4.6018 3.9585 6.9778 2.0298 3.9232 6.8058 6.1329 11.008 4.7676l30.336-9.8566c4.202-1.3653 6.3388-5.8244 4.5342-9.8568-3.1424-7.0215-6.8133-13.794-10.981-20.26-2.3935-3.7132-7.4068-4.5017-10.981-1.9046z"/><path transform="translate(-1.5313e-5 16)" d="m159.45 83.52c-5.8161 4.8166-11.265 10.06-16.302 15.686-2.9466 3.2916-2.279 8.2035 1.2955 10.801l25.986 18.88c3.5744 2.5971 8.7293 1.9132 11.792-1.2696 1.7532-1.8219 3.5724-3.5793 5.4537-5.2686 3.2866-2.9512 4.0468-8.0086 1.4499-11.583l-18.68-25.712c-2.5969-3.5745-7.5925-4.3519-10.995-1.5341z"/><path transform="translate(-1.5313e-5 16)" d="m341.72 84.816-18.815 25.897c-2.5969 3.5745-1.7948 8.5752 1.5492 11.461 1.9408 1.675 3.819 3.4212 5.6307 5.235 3.1217 3.1252 8.3282 3.7665 11.903 1.1694l25.677-18.656c3.5744-2.597 4.2536-7.5182 1.3206-10.822-5.0284-5.6639-10.473-10.944-16.289-15.796-3.3921-2.8302-8.3799-2.0635-10.977 1.511z"/><path transform="translate(-1.5313e-5 16)" d="m302.95 64.444-9.8467 30.305c-1.3653 4.202 0.92761 8.7557 4.9765 10.522 2.279 0.99395 4.5217 2.0693 6.7236 3.224 3.9119 2.0514 9.0404 1.0864 11.638-2.488l18.584-25.577c2.597-3.5744 1.7347-8.4828-2.0619-10.742-6.4317-3.8269-13.137-7.1736-20.062-10.013-4.0876-1.6759-8.5853 0.56775-9.9506 4.7698z"/><path transform="translate(-1.5313e-5 16)" d="m199.05 59.518c-6.9423 2.8418-13.665 6.1937-20.112 10.028-3.797 2.2582-4.6598 7.1659-2.0628 10.74l18.925 26.048c2.597 3.5744 7.6881 4.4822 11.56 2.3565 2.1612-1.1864 4.3638-2.2956 6.6038-3.3254 4.0134-1.8452 6.2831-6.4655 4.9177-10.667l-9.8798-30.406c-1.3654-4.202-5.8637-6.4475-9.9522-4.7739z"/><path transform="translate(-1.5313e-5 16)" d="m256 48c-11.509 0.07921-22.963 1.4652-34.143 4.1257-4.2978 1.0227-6.6236 5.4624-5.2584 9.6644l9.9017 30.476c1.3652 4.2021 5.9174 6.6068 10.249 5.7416 6.3347-1.2652 12.779-1.9385 19.25-2.0081 6.474 0.05738 12.923 0.71911 19.263 1.9734 4.3332 0.85728 8.8873-1.5536 10.253-5.7557l9.794-30.142c1.3653-4.202-0.9533-8.6651-5.244-9.7171-11.146-2.7329-22.573-4.1968-34.065-4.3581z"/></g><path d="m256 48a152 152 0 0 0-151.47 144h48.105a104 104 0 0 1 103.37-96 104 104 0 0 1 103.66 96h48.109a152 152 0 0 0-151.77-144z" display="none" fill="#999"/></g></svg>
