<?xml version="1.0" encoding="UTF-8"?>
<svg version="1.1" viewBox="0 0 512 512" xml:space="preserve" xmlns="http://www.w3.org/2000/svg"><g><ellipse cx="256" cy="256" rx="256" ry="256" fill="#ee7826"/><circle cx="256" cy="256" r="240" fill="#262626"/></g><circle cx="256" cy="272" r="56" fill="none" stroke="#ee7826" stroke-linejoin="round" stroke-width="16"/><path d="m256 160c0 88 16 112 72 112-56 0-72 24-72 112 0-88-16-112-72-112 56 0 72-24 72-112z" fill="#fffbfa" stroke="#fffdfc" stroke-linejoin="round" stroke-width="16"/><path d="m256 248-24 24 24 24 24-24z" fill="#ee7826"/><path d="m177.9 64-73.9 128v64h-32c-4.432 0-8 3.568-8 8v16c0 4.432 3.568 8 8 8h32v88h-74.16l0.0039 8e-3c5.9423 11.148 12.702 21.842 20.223 31.992h93.934c4.432 0 8-3.568 8-8v-195.14l53.613-92.859h26.387a8 8 135 0 0 8-8v-32a8 8 45 0 0-8-8zm-49.9 224c4.4183 0 8 3.5817 8 8v72c0 4.4183-3.5817 8-8 8s-8-3.5817-8-8v-72c0-4.4183 3.5817-8 8-8z" fill="#b2b2b2"/><path d="m272 72v32a8 8 45 0 0 8 8h26.387l53.613 92.859v195.14c0 4.432 3.568 8 8 8h93.934c7.521-10.15 14.281-20.844 20.223-31.992l4e-3 -8e-3h-74.16v-88h32c4.432 0 8-3.568 8-8v-16c0-4.432-3.568-8-8-8h-32v-64l-73.9-128h-54.1a8 8 135 0 0-8 8zm112 216c4.4183 0 8 3.5817 8 8v72c0 4.4183-3.5817 8-8 8s-8-3.5817-8-8v-72c0-4.4183 3.5817-8 8-8z" fill="#b2b2b2"/><ellipse cx="128" cy="248" rx="8" ry="8" fill="none"/></svg>
