<?xml version="1.0" encoding="UTF-8" standalone="no"?><!DOCTYPE svg PUBLIC "-//W3C//DTD SVG 1.1//EN" "http://www.w3.org/Graphics/SVG/1.1/DTD/svg11.dtd"><svg width="100%" height="100%" viewBox="0 0 6250 4167" version="1.1" xmlns="http://www.w3.org/2000/svg" xmlns:xlink="http://www.w3.org/1999/xlink" xml:space="preserve" xmlns:serif="http://www.serif.com/" style="fill-rule:evenodd;clip-rule:evenodd;stroke-linecap:round;stroke-linejoin:round;stroke-miterlimit:1.5;"><path d="M1250,416.667l-1041.67,-0l0,3541.67l5833.33,0l-0,-3541.67l-1041.67,-0" style="fill:none;stroke:#ce242b;stroke-width:208.33px;"/><path d="M1059.24,1666.45l625,0l-0,1875l694.01,-0l0,-2291.23l-1319.01,-0l0,416.232Z" style="fill:#fff;fill-rule:nonzero;"/><path d="M3333.55,3069.64c-0,315.717 197.793,471.805 589.908,471.805l972.526,-0c392.116,-0 589.909,-156.088 589.909,-471.805l-0,-1347.63c-0,-315.708 -197.793,-471.794 -589.909,-471.794l-972.526,-0c-392.115,-0 -589.908,156.086 -589.908,471.794l-0,1347.63Zm694.01,-41.68l-0,-1264.27c-0,-65.992 41.69,-97.241 121.596,-97.241l521.128,0c79.906,0 121.599,31.249 121.599,97.241l-0,1264.27c-0,65.993 -41.693,97.252 -121.599,97.252l-521.128,0c-79.906,0 -121.596,-31.259 -121.596,-97.252Z" style="fill:#fff;fill-rule:nonzero;"/><path d="M2225.05,758.281l291.616,0c189.172,0 283.28,-75.754 283.28,-226.601l-0,-96.696c-0,-150.844 -94.108,-226.599 -283.28,-226.599l-291.616,0l0,549.896Zm166.563,-99.896l-0,-350.104l91.705,0c100.043,0 150.065,40.01 150.065,120.034l0,110.034c0,80.024 -50.022,120.036 -150.065,120.036l-91.705,0Z" style="fill:#fff;fill-rule:nonzero;"/><path d="M2970.89,308.281l150,0l0,450l166.563,0l-0,-549.896l-316.563,0l0,99.896Z" style="fill:#fff;fill-rule:nonzero;"/><path d="M3516.72,645.048c-0,75.772 47.47,113.233 141.578,113.233l233.406,0c94.108,0 141.578,-37.461 141.578,-113.233l0,-323.432c0,-75.77 -47.47,-113.231 -141.578,-113.231l-233.406,0c-94.108,0 -141.578,37.461 -141.578,113.231l-0,323.432Zm166.562,-10.003l0,-303.426c0,-15.838 10.006,-23.338 29.183,-23.338l125.071,0c19.177,0 29.184,7.5 29.184,23.338l-0,303.426c-0,15.838 -10.007,23.34 -29.184,23.34l-125.071,0c-19.177,0 -29.183,-7.502 -29.183,-23.34Z" style="fill:#fff;fill-rule:nonzero;"/></svg>