<?xml version="1.0" encoding="UTF-8" standalone="no"?>
<!DOCTYPE svg PUBLIC "-//W3C//DTD SVG 1.1//EN" "http://www.w3.org/Graphics/SVG/1.1/DTD/svg11.dtd">
<svg width="100%" height="100%" viewBox="0 0 1000 1000" version="1.1" xmlns="http://www.w3.org/2000/svg" xmlns:xlink="http://www.w3.org/1999/xlink" xml:space="preserve" xmlns:serif="http://www.serif.com/" style="fill-rule:evenodd;clip-rule:evenodd;stroke-linecap:round;stroke-linejoin:round;stroke-miterlimit:1.5;">
    <g transform="matrix(1.47711,0,0,1.6193,-129.157,-131.692)">
        <ellipse cx="425.939" cy="390.102" rx="330.375" ry="301.365" style="fill:white;fill-opacity:0.1;stroke:black;stroke-width:13.44px;"/>
    </g>
    <g transform="matrix(3.06176,0,0,2.88274,-251.332,-251.677)">
        <path d="M93.808,208.439C88.639,225.334 86.007,242.987 86.007,260.751C86.007,354.181 157.425,430.034 245.392,430.034C333.36,430.034 404.778,354.181 404.778,260.751C404.778,167.258 333.419,91.468 245.392,91.468L245.392,260.751L93.808,208.439Z" style="fill:rgb(148,150,152);stroke:black;stroke-width:7.01px;"/>
    </g>
    <g id="_10-Slice" serif:id="10 Slice">
        <g transform="matrix(1,0,0,1.24289,0,-2.91462)">
            <path d="M500,12L500,797.27" style="fill:none;stroke:black;stroke-width:18.47px;"/>
        </g>
        <g transform="matrix(0.809017,-0.587785,0.73055,1.00552,-200.114,387.026)">
            <path d="M500,12L500,797.27" style="fill:none;stroke:black;stroke-width:18.47px;"/>
        </g>
        <g transform="matrix(0.309017,-0.951057,1.18205,0.384073,-132.809,820.119)">
            <path d="M500,12L500,797.27" style="fill:none;stroke:black;stroke-width:18.47px;"/>
        </g>
        <g transform="matrix(-0.309017,-0.951057,1.18205,-0.384073,176.208,1130.94)">
            <path d="M500,12L500,797.27" style="fill:none;stroke:black;stroke-width:18.47px;"/>
        </g>
        <g transform="matrix(-0.809017,-0.587785,0.73055,-1.00552,608.903,1200.76)">
            <path d="M500,12L500,797.27" style="fill:none;stroke:black;stroke-width:18.47px;"/>
        </g>
    </g>
    <g transform="matrix(0.454029,0,0,0.497735,306.612,305.832)">
        <ellipse cx="425.939" cy="390.102" rx="330.375" ry="301.365" style="stroke:black;stroke-width:43.73px;"/>
    </g>
    <g transform="matrix(1,0,0,1,-58.1911,-56.8259)">
        <g transform="matrix(166.667,0,0,166.667,676.524,611.826)">
        </g>
        <text x="429.858px" y="611.826px" style="font-family:'Xolonium-Bold', 'Xolonium';font-weight:700;font-size:166.667px;fill:white;">10</text>
    </g>
</svg>
