<?xml version="1.0" encoding="UTF-8" standalone="no"?>
<!DOCTYPE svg PUBLIC "-//W3C//DTD SVG 1.1//EN" "http://www.w3.org/Graphics/SVG/1.1/DTD/svg11.dtd">
<svg width="100%" height="100%" viewBox="0 0 1000 1000" version="1.1" xmlns="http://www.w3.org/2000/svg" xmlns:xlink="http://www.w3.org/1999/xlink" xml:space="preserve" xmlns:serif="http://www.serif.com/" style="fill-rule:evenodd;clip-rule:evenodd;stroke-linecap:round;stroke-linejoin:round;stroke-miterlimit:1.5;">
    <g transform="matrix(1.47711,0,0,1.6193,-129.157,-131.692)">
        <ellipse cx="425.939" cy="390.102" rx="330.375" ry="301.365" style="fill:white;fill-opacity:0.1;stroke:black;stroke-width:13.44px;"/>
    </g>
    <g transform="matrix(3.06176,0,0,2.88274,-251.332,-251.677)">
        <path d="M404.778,260.751C404.778,167.258 333.419,91.468 245.392,91.468L245.392,260.751L404.778,260.751Z" style="fill:rgb(148,150,152);stroke:black;stroke-width:7.01px;"/>
    </g>
    <g id="_4-Slice" serif:id="4 Slice">
        <g transform="matrix(6.12323e-17,1,-1.24289,7.61048e-17,1002.91,2.84217e-14)">
            <path d="M500,12L500,797.27" style="fill:none;stroke:black;stroke-width:18.47px;"/>
        </g>
        <g transform="matrix(1,0,0,1.24289,0,-2.91462)">
            <path d="M500,12L500,797.27" style="fill:none;stroke:black;stroke-width:18.47px;"/>
        </g>
    </g>
    <g transform="matrix(0.454029,0,0,0.497735,306.612,305.832)">
        <ellipse cx="425.939" cy="390.102" rx="330.375" ry="301.365" style="stroke:black;stroke-width:43.73px;"/>
    </g>
    <g transform="matrix(1,0,0,1,-58.1911,-56.8259)">
        <g transform="matrix(225,0,0,225,628.941,631.076)">
        </g>
        <text x="462.441px" y="631.076px" style="font-family:'Xolonium-Bold', 'Xolonium';font-weight:700;font-size:225px;fill:white;">4</text>
    </g>
</svg>
