<?xml version="1.0" encoding="UTF-8" standalone="no"?><!DOCTYPE svg PUBLIC "-//W3C//DTD SVG 1.1//EN" "http://www.w3.org/Graphics/SVG/1.1/DTD/svg11.dtd"><svg width="100%" height="100%" viewBox="0 0 6250 4167" version="1.1" xmlns="http://www.w3.org/2000/svg" xmlns:xlink="http://www.w3.org/1999/xlink" xml:space="preserve" xmlns:serif="http://www.serif.com/" style="fill-rule:evenodd;clip-rule:evenodd;stroke-linejoin:round;stroke-miterlimit:2;"><path d="M638.184,2656.36c-0,208.183 130.117,312.225 390.35,312.225l1015.57,0l0,-963.479c0,-208.194 -130.12,-312.237 -390.354,-312.237l-911.477,0l0,273.112l768.26,0c44.302,0 65.147,18.259 65.147,52.166l-0,156.493l-547.15,-0c-260.233,-0 -390.35,104.043 -390.35,312.227l-0,169.493Zm468.424,-13.038l0,-143.418c0,-33.898 20.848,-52.152 65.15,-52.152l403.926,-0l-0,247.721l-403.926,0c-44.302,0 -65.15,-18.253 -65.15,-52.151Z" style="fill:#fff;fill-rule:nonzero;"/><path d="M2356.93,2968.59l468.424,0l0,-1002.6l456.014,0c44.299,0 65.145,18.229 65.145,52.083l-0,950.521l468.424,0l0,-963.541c0,-208.132 -130.12,-312.175 -390.354,-312.175l-1067.65,0l-0,1275.72Z" style="fill:#fff;fill-rule:nonzero;"/><path d="M4127.77,2656.39c-0,208.15 130.117,312.192 390.351,312.192l1067.66,0l-0,-1718.42l-468.425,-0l0,442.708l-599.232,0c-260.234,0 -390.351,104.043 -390.351,312.195l-0,651.329Zm468.424,-13.026l0,-625.277c0,-33.869 20.847,-52.109 65.145,-52.109l456.014,0l0,729.492l-456.014,0c-44.298,0 -65.145,-18.237 -65.145,-52.106Z" style="fill:#fff;fill-rule:nonzero;"/></svg>