<?xml version="1.0" encoding="UTF-8" standalone="no"?><!DOCTYPE svg PUBLIC "-//W3C//DTD SVG 1.1//EN" "http://www.w3.org/Graphics/SVG/1.1/DTD/svg11.dtd"><svg width="100%" height="100%" viewBox="0 0 6250 4167" version="1.1" xmlns="http://www.w3.org/2000/svg" xmlns:xlink="http://www.w3.org/1999/xlink" xml:space="preserve" xmlns:serif="http://www.serif.com/" style="fill-rule:evenodd;clip-rule:evenodd;stroke-linejoin:round;stroke-miterlimit:2;"><path d="M1028.65,1692.87l583.333,1275.72l552.084,0l583.333,-1275.72l-463.542,0l-395.833,864.365l-395.834,-864.365l-463.541,0Z" style="fill:#fff;fill-rule:nonzero;"/><path d="M2903.81,2968.59l937.445,0c260.234,0 390.354,-104.042 390.354,-312.225l0,-169.493c0,-208.184 -130.12,-312.227 -390.354,-312.227l-403.862,-0c-39.095,-0 -65.159,-13.041 -65.159,-52.164l0,-104.329c0,-39.124 26.064,-52.166 65.159,-52.166l690.119,0l0,-273.112l-833.352,0c-260.233,0 -390.35,104.043 -390.35,312.237l-0,130.411c-0,208.192 130.117,312.235 390.35,312.235l403.868,-0c39.095,-0 65.157,13.039 65.157,52.152l-0,143.418c-0,39.113 -26.062,52.151 -65.157,52.151l-794.218,0l-0,273.112Z" style="fill:#fff;fill-rule:nonzero;"/><rect x="4557.45" y="2578.29" width="494.466" height="390.299" style="fill:#fff;fill-rule:nonzero;"/></svg>