<?xml version="1.0" encoding="UTF-8"?>
<svg version="1.1" viewBox="0 0 512 512" xml:space="preserve" xmlns="http://www.w3.org/2000/svg"><g><ellipse cx="256" cy="256" rx="256" ry="256" fill="#13a6ce"/><circle cx="256" cy="256" r="240" fill="#262626"/></g><g><g fill="#dfccaf"><path d="m216 296-3.2e-4 56c16 16 64 16 80 0l3.2e-4 -56z"/><ellipse cx="256" cy="248" rx="72" ry="64"/><path d="m192 264-8 16 8 24 8 8 56-8 56 8 8-8 8-24-8-16z"/></g><path d="m200 272c3.1348-5.0723 10.197-10.63 16-12 5.1907-1.2254 13.904 9.7019 18 12 3.0386 1.7049 6 4.2288 6 8 0 4.7506 0.041 3.0726-2 8-1.4432 3.4842-2.5158 4.5568-6 6-7.391 3.0615-17.195 6.2058-24 2-5.0723-3.1348-6.63-6.8379-8-12.641-0.61267-2.5953-1.402-9.0904 0-11.359z" fill="#262626"/><path d="m256 288s-10.955 12.114-10 18c0.60408 3.7225 10 6 10 6s9.3959-2.2775 10-6c0.95514-5.8858-10-18-10-18z" fill="#262626"/><path d="m208 328c24 16 72 16 96 0" fill="#dfccaf" stroke="#262626" stroke-linecap="round" stroke-linejoin="round" stroke-width="8"/><ellipse cx="224" cy="280" rx="8" ry="8" fill="#13a6ce"/><path d="m312 272c-3.1348-5.0723-10.197-10.63-16-12-5.1907-1.2254-13.904 9.7019-18 12-3.0386 1.7049-6 4.2288-6 8 0 4.7506-0.041 3.0726 2 8 1.4432 3.4842 2.5158 4.5568 6 6 7.391 3.0615 17.195 6.2058 24 2 5.0723-3.1348 6.63-6.8379 8-12.641 0.61267-2.5953 1.402-9.0904 0-11.359z" fill="#262626"/><ellipse cx="288" cy="280" rx="8" ry="8" fill="#13a6ce"/><path d="m240 64c-4.432 0-8 3.568-8 8v8.9141c-54.529 3.8008-108.35 20.513-156.6 50.279-3.7601 2.3198-4.8087 7.2828-2.4023 10.988l17.428 26.838c2.4064 3.7055 7.3564 4.7474 11.125 2.4414 94.813-58.016 214.08-58.016 308.89 0 3.7686 2.306 8.7186 1.2641 11.125-2.4414l17.428-26.838c2.4064-3.7055 1.3578-8.6684-2.4024-10.988-48.247-29.766-102.07-46.479-156.6-50.279v-8.9141c0-4.432-3.568-8-8-8h-32z" fill="#b2b2b2"/><path d="m236 330v16" fill="#14b6e2" stroke="#262626" stroke-linecap="round" stroke-linejoin="round" stroke-width="8"/><path d="m276 330v16" fill="#14b6e2" stroke="#262626" stroke-linecap="round" stroke-linejoin="round" stroke-width="8"/></g><g stroke="#262626" stroke-linecap="round" stroke-linejoin="round" stroke-width="8"><path d="m192 200c7.4951 22.866 48 60 80.888 70.859 14.17 4.6786 47.42 7.328 58.647-8.627" fill="none"/><path d="m271.35 274.53s4.0199-7.5874 8.3085-10.076c4.7964-2.7835 15.34-4.2453 20.86-3.7123 5.9286 0.57242 11.49 9.1924 11.49 9.1924 1.2734 6.7177 1.8555 13.081-2.1213 19.092-3.074 4.646-8.2535 7.3242-13.789 7.955-6.7186 0.76564-13.518-1.3587-18.738-5.6569-5.5588-4.5768-6.0104-16.794-6.0104-16.794z" fill="#262626"/></g><g fill="#b2b2b2"><path d="m147.44 165.05c-0.89029-0.0536-1.8675 0.11314-2.8906 0.52929-2.8638 1.1648-5.7141 2.3768-8.5488 3.6348v198.79c0 4.432-3.568 8-8 8s-8-3.568-8-8v-191.09c-3.0467 1.5771-6.0782 3.1983-9.082 4.8887-3.8504 2.1667-6.918 7.5993-6.918 12.018v182.19h-74.16l0.003906 0.00781c5.9423 11.148 12.702 21.842 20.223 31.992h93.934c4.432 0 8-3.568 8-8v-229.34c0-3.3137-1.8896-5.4544-4.5606-5.6152z"/><path d="m364.56 165.05c-2.6709 0.16086-4.5606 2.3015-4.5606 5.6152v229.34c0 4.432 3.568 8 8 8h93.934c7.521-10.15 14.281-20.844 20.223-31.992l0.00391-0.00781h-74.16v-182.19c0-4.4183-3.0676-9.8509-6.918-12.018-2.8404-1.5984-5.7032-3.1415-8.582-4.6387v190.84c0 4.432-3.568 8-8 8h-0.5c-4.432 0-8-3.568-8-8v-198.79c-2.8347-1.2579-5.685-2.4699-8.5488-3.6348-1.0231-0.41615-2.0003-0.58292-2.8906-0.52929z"/><rect x="64" y="256" width="32" height="32" rx="8" ry="8"/><rect x="416" y="256" width="32" height="32" rx="8" ry="8"/></g></svg>
