<?xml version="1.0" encoding="UTF-8" standalone="no"?><!DOCTYPE svg PUBLIC "-//W3C//DTD SVG 1.1//EN" "http://www.w3.org/Graphics/SVG/1.1/DTD/svg11.dtd"><svg width="100%" height="100%" viewBox="0 0 6250 4167" version="1.1" xmlns="http://www.w3.org/2000/svg" xmlns:xlink="http://www.w3.org/1999/xlink" xml:space="preserve" xmlns:serif="http://www.serif.com/" style="fill-rule:evenodd;clip-rule:evenodd;stroke-linecap:round;stroke-linejoin:round;stroke-miterlimit:1.5;"><path d="M1250,416.667l-1041.67,-0l0,3541.67l5833.33,0l-0,-3541.67l-1041.67,-0" style="fill:none;stroke:#28aae1;stroke-width:208.33px;"/><path d="M2048.83,3069.62c0,315.743 197.793,471.831 589.909,471.831l972.526,-0c392.115,-0 589.908,-156.088 589.908,-471.831l0,-462.157c0,-315.742 -197.793,-471.828 -589.908,-471.828l-868.424,0l-0,-274.561c-0,-128.591 79.906,-194.623 243.192,-194.623l1041.64,0l0,-416.232l-1284.83,-0c-461.517,-0 -694.011,183.835 -694.011,555.248l0,1264.15Zm694.011,-41.698l-0,-476.054l642.723,-0c79.906,-0 121.599,31.27 121.599,97.293l0,378.761c0,66.022 -41.693,97.296 -121.599,97.296l-521.127,0c-79.906,0 -121.596,-31.274 -121.596,-97.296Z" style="fill:#fff;fill-rule:nonzero;"/><path d="M2533.39,758.281l291.616,0c189.172,0 283.28,-75.754 283.28,-226.601l0,-96.696c0,-150.844 -94.108,-226.599 -283.28,-226.599l-291.616,0l0,549.896Zm166.563,-99.896l-0,-350.104l91.706,0c100.042,0 150.065,40.01 150.065,120.034l-0,110.034c-0,80.024 -50.023,120.036 -150.065,120.036l-91.706,0Z" style="fill:#fff;fill-rule:nonzero;"/><path d="M3208.39,645.042c0,75.778 47.471,113.239 141.578,113.239l233.407,0c94.108,0 141.578,-37.461 141.578,-113.239l-0,-110.918c-0,-75.778 -47.47,-113.239 -141.578,-113.239l-208.422,0l-0,-65.894c-0,-30.862 19.177,-46.71 58.366,-46.71l249.993,0l0,-99.896l-308.359,0c-110.764,0 -166.563,44.121 -166.563,133.26l0,303.397Zm166.563,-10.008l-0,-114.253l154.254,0c19.177,0 29.183,7.505 29.183,23.351l0,90.902c0,15.846 -10.006,23.351 -29.183,23.351l-125.071,0c-19.177,0 -29.183,-7.505 -29.183,-23.351Z" style="fill:#fff;fill-rule:nonzero;"/></svg>