<?xml version="1.0" encoding="UTF-8" standalone="no"?><!DOCTYPE svg PUBLIC "-//W3C//DTD SVG 1.1//EN" "http://www.w3.org/Graphics/SVG/1.1/DTD/svg11.dtd"><svg width="100%" height="100%" viewBox="0 0 6250 4167" version="1.1" xmlns="http://www.w3.org/2000/svg" xmlns:xlink="http://www.w3.org/1999/xlink" xml:space="preserve" xmlns:serif="http://www.serif.com/" style="fill-rule:evenodd;clip-rule:evenodd;stroke-linecap:round;stroke-linejoin:round;stroke-miterlimit:1.5;"><path d="M1250,416.667l-1041.67,-0l0,3541.67l5833.33,0l-0,-3541.67l-1041.67,-0" style="fill:none;stroke:#28aae1;stroke-width:208.33px;"/><path d="M2048.83,2080.03c0,315.752 197.793,471.84 589.909,471.84l868.424,-0l0,378.757c0,128.571 -79.909,194.593 -243.195,194.593l-1076.34,0l0,416.233l1319.53,-0c461.517,-0 694.01,-183.837 694.01,-555.228l0,-1264.17c0,-315.751 -197.793,-471.837 -589.908,-471.837l-972.526,-0c-392.116,-0 -589.909,156.086 -589.909,471.837l0,357.972Zm694.011,-41.705l-0,-274.561c-0,-66.034 41.69,-97.311 121.596,-97.311l521.127,0c79.906,0 121.599,31.277 121.599,97.311l0,371.873l-642.726,0c-79.906,0 -121.596,-31.279 -121.596,-97.312Z" style="fill:#fff;fill-rule:nonzero;"/><g><path d="M1566.72,308.281l225,0l-0,450l166.562,0l0,-450l225,0l0,-99.896l-616.562,0l-0,99.896Z" style="fill:#fff;fill-rule:nonzero;"/><path d="M2250.05,645.048c0,75.772 47.47,113.233 141.578,113.233l291.74,0c94.108,0 141.578,-37.461 141.578,-113.233l-0,-323.432c-0,-75.77 -47.47,-113.231 -141.578,-113.231l-291.74,0c-94.108,0 -141.578,37.461 -141.578,113.231l0,323.432Zm166.563,-10.003l-0,-303.426c-0,-15.838 10.004,-23.338 29.179,-23.338l183.411,0c19.175,0 29.18,7.5 29.18,23.338l0,303.426c0,15.838 -10.005,23.34 -29.18,23.34l-183.411,0c-19.175,0 -29.179,-7.502 -29.179,-23.34Z" style="fill:#fff;fill-rule:nonzero;"/><path d="M2891.72,308.281l225,0l-0,450l166.562,0l0,-450l225,0l0,-99.896l-616.562,0l-0,99.896Z" style="fill:#fff;fill-rule:nonzero;"/><path d="M3429.17,758.281l163.333,0l50,-116.666l256.667,-0l50,116.666l163.333,0l-237.5,-549.896l-208.333,0l-237.5,549.896Zm256.666,-216.562l85,-195.834l85,195.834l-170,-0Z" style="fill:#fff;fill-rule:nonzero;"/><path d="M4175.05,758.281l508.229,0l0,-99.896l-341.666,0l-0,-450l-166.563,0l0,549.896Z" style="fill:#fff;fill-rule:nonzero;"/></g></svg>