<?xml version="1.0" encoding="UTF-8" standalone="no"?><!DOCTYPE svg PUBLIC "-//W3C//DTD SVG 1.1//EN" "http://www.w3.org/Graphics/SVG/1.1/DTD/svg11.dtd"><svg width="100%" height="100%" viewBox="0 0 5542 555" version="1.1" xmlns="http://www.w3.org/2000/svg" xmlns:xlink="http://www.w3.org/1999/xlink" xml:space="preserve" xmlns:serif="http://www.serif.com/" style="fill-rule:evenodd;clip-rule:evenodd;"><g id="Box-0-A"><path d="M89.743,28.114c-33.663,-0 -60.937,27.274 -60.937,60.937l-0,394.897c-0,33.663 27.274,60.955 60.937,60.955l394.896,-0c33.663,-0 60.955,-27.292 60.955,-60.955l0,-394.897c0,-33.663 -27.292,-60.937 -60.955,-60.937l-394.896,-0Z" style="fill-rule:nonzero;stroke:#000;stroke-width:17.36px;"/><path d="M69.618,8.681c-33.663,-0 -60.937,27.274 -60.937,60.937l-0,394.896c-0,33.663 27.274,60.955 60.937,60.955l394.896,0c33.663,0 60.955,-27.292 60.955,-60.955l0,-394.896c0,-33.663 -27.292,-60.937 -60.955,-60.937l-394.896,-0Z" style="fill:#fff;fill-rule:nonzero;stroke:#000;stroke-width:17.36px;"/></g><g id="Box-0-B"><path d="M643.979,28.114c-33.663,-0 -60.937,27.274 -60.937,60.937l-0,394.897c-0,33.663 27.274,60.955 60.937,60.955l394.896,-0c33.664,-0 60.955,-27.292 60.955,-60.955l0,-394.897c0,-33.663 -27.291,-60.937 -60.955,-60.937l-394.896,-0Z" style="fill-rule:nonzero;stroke:#000;stroke-width:17.36px;"/><path d="M623.854,8.681c-33.663,-0 -60.937,27.274 -60.937,60.937l-0,394.896c-0,33.663 27.274,60.955 60.937,60.955l394.896,0c33.664,0 60.955,-27.292 60.955,-60.955l0,-394.896c0,-33.663 -27.291,-60.937 -60.955,-60.937l-394.896,-0Z" style="fill:#fff;fill-rule:nonzero;stroke:#000;stroke-width:17.36px;"/></g><g id="Box-0-C"><path d="M1198.15,28.114c-33.663,-0 -60.938,27.274 -60.938,60.937l0,394.897c0,33.663 27.275,60.955 60.938,60.955l394.896,-0c33.663,-0 60.955,-27.292 60.955,-60.955l-0,-394.897c-0,-33.663 -27.292,-60.937 -60.955,-60.937l-394.896,-0Z" style="fill-rule:nonzero;stroke:#000;stroke-width:17.36px;"/><path d="M1178.02,8.681c-33.663,-0 -60.938,27.274 -60.938,60.937l0,394.896c0,33.663 27.275,60.955 60.938,60.955l394.896,0c33.663,0 60.955,-27.292 60.955,-60.955l-0,-394.896c-0,-33.663 -27.292,-60.937 -60.955,-60.937l-394.896,-0Z" style="fill:#fff;fill-rule:nonzero;stroke:#000;stroke-width:17.36px;"/></g><g id="Box-0-D"><path d="M1752.31,28.114c-33.664,-0 -60.938,27.274 -60.938,60.937l0,394.897c0,33.663 27.274,60.955 60.938,60.955l394.896,-0c33.663,-0 60.955,-27.292 60.955,-60.955l-0,-394.897c-0,-33.663 -27.292,-60.937 -60.955,-60.937l-394.896,-0Z" style="fill-rule:nonzero;stroke:#000;stroke-width:17.36px;"/><path d="M1732.19,8.681c-33.664,-0 -60.938,27.274 -60.938,60.937l0,394.896c0,33.663 27.274,60.955 60.938,60.955l394.896,0c33.663,0 60.955,-27.292 60.955,-60.955l-0,-394.896c-0,-33.663 -27.292,-60.937 -60.955,-60.937l-394.896,-0Z" style="fill:#fff;fill-rule:nonzero;stroke:#000;stroke-width:17.36px;"/></g><g id="Box-0-E"><path d="M2306.48,28.114c-33.663,-0 -60.937,27.274 -60.937,60.937l-0,394.897c-0,33.663 27.274,60.955 60.937,60.955l394.896,-0c33.664,-0 60.955,-27.292 60.955,-60.955l0,-394.897c0,-33.663 -27.291,-60.937 -60.955,-60.937l-394.896,-0Z" style="fill-rule:nonzero;stroke:#000;stroke-width:17.36px;"/><path d="M2286.35,8.681c-33.663,-0 -60.937,27.274 -60.937,60.937l-0,394.896c-0,33.663 27.274,60.955 60.937,60.955l394.896,0c33.664,0 60.955,-27.292 60.955,-60.955l0,-394.896c0,-33.663 -27.291,-60.937 -60.955,-60.937l-394.896,-0Z" style="fill:#fff;fill-rule:nonzero;stroke:#000;stroke-width:17.36px;"/></g><g id="Box-0-F"><path d="M2860.65,28.114c-33.663,-0 -60.938,27.274 -60.938,60.937l0,394.897c0,33.663 27.275,60.955 60.938,60.955l394.896,-0c33.663,-0 60.955,-27.292 60.955,-60.955l-0,-394.897c-0,-33.663 -27.292,-60.937 -60.955,-60.937l-394.896,-0Z" style="fill-rule:nonzero;stroke:#000;stroke-width:17.36px;"/><path d="M2840.52,8.681c-33.663,-0 -60.938,27.274 -60.938,60.937l0,394.896c0,33.663 27.275,60.955 60.938,60.955l394.896,0c33.663,0 60.955,-27.292 60.955,-60.955l-0,-394.896c-0,-33.663 -27.292,-60.937 -60.955,-60.937l-394.896,-0Z" style="fill:#fff;fill-rule:nonzero;stroke:#000;stroke-width:17.36px;"/></g><g id="Box-0-G"><path d="M3414.81,28.114c-33.664,-0 -60.938,27.274 -60.938,60.937l0,394.897c0,33.663 27.274,60.955 60.938,60.955l394.896,-0c33.663,-0 60.955,-27.292 60.955,-60.955l-0,-394.897c-0,-33.663 -27.292,-60.937 -60.955,-60.937l-394.896,-0Z" style="fill-rule:nonzero;stroke:#000;stroke-width:17.36px;"/><path d="M3394.69,8.681c-33.664,-0 -60.938,27.274 -60.938,60.937l0,394.896c0,33.663 27.274,60.955 60.938,60.955l394.896,0c33.663,0 60.955,-27.292 60.955,-60.955l-0,-394.896c-0,-33.663 -27.292,-60.937 -60.955,-60.937l-394.896,-0Z" style="fill:#fff;fill-rule:nonzero;stroke:#000;stroke-width:17.36px;"/></g><g id="Box-0-H"><path d="M3968.98,28.114c-33.663,-0 -60.937,27.274 -60.937,60.937l-0,394.897c-0,33.663 27.274,60.955 60.937,60.955l394.896,-0c33.664,-0 60.955,-27.292 60.955,-60.955l0,-394.897c0,-33.663 -27.291,-60.937 -60.955,-60.937l-394.896,-0Z" style="fill-rule:nonzero;stroke:#000;stroke-width:17.36px;"/><path d="M3948.85,8.681c-33.663,-0 -60.937,27.274 -60.937,60.937l-0,394.896c-0,33.663 27.274,60.955 60.937,60.955l394.896,0c33.664,0 60.955,-27.292 60.955,-60.955l0,-394.896c0,-33.663 -27.291,-60.937 -60.955,-60.937l-394.896,-0Z" style="fill:#fff;fill-rule:nonzero;stroke:#000;stroke-width:17.36px;"/></g><g id="Box-0-I"><path d="M4523.15,28.114c-33.663,-0 -60.938,27.274 -60.938,60.937l0,394.897c0,33.663 27.275,60.955 60.938,60.955l394.896,-0c33.663,-0 60.955,-27.292 60.955,-60.955l-0,-394.897c-0,-33.663 -27.292,-60.937 -60.955,-60.937l-394.896,-0Z" style="fill-rule:nonzero;stroke:#000;stroke-width:17.36px;"/><path d="M4503.02,8.681c-33.663,-0 -60.938,27.274 -60.938,60.937l0,394.896c0,33.663 27.275,60.955 60.938,60.955l394.896,0c33.663,0 60.955,-27.292 60.955,-60.955l-0,-394.896c-0,-33.663 -27.292,-60.937 -60.955,-60.937l-394.896,-0Z" style="fill:#fff;fill-rule:nonzero;stroke:#000;stroke-width:17.36px;"/></g><g id="Box-0-J"><path d="M5077.31,28.114c-33.664,-0 -60.938,27.274 -60.938,60.937l0,394.897c0,33.663 27.274,60.955 60.938,60.955l394.896,-0c33.663,-0 60.955,-27.292 60.955,-60.955l-0,-394.897c-0,-33.663 -27.292,-60.937 -60.955,-60.937l-394.896,-0Z" style="fill-rule:nonzero;stroke:#000;stroke-width:17.36px;"/><path d="M5057.19,8.681c-33.664,-0 -60.938,27.274 -60.938,60.937l0,394.896c0,33.663 27.274,60.955 60.938,60.955l394.896,0c33.663,0 60.955,-27.292 60.955,-60.955l-0,-394.896c-0,-33.663 -27.292,-60.937 -60.955,-60.937l-394.896,-0Z" style="fill:#fff;fill-rule:nonzero;stroke:#000;stroke-width:17.36px;"/></g><g id="Layer1"><path d="M50.417,50.417l432.5,432.5" style="fill:none;stroke:#000;stroke-width:25px;stroke-linecap:round;stroke-linejoin:round;stroke-miterlimit:1.5;"/><path d="M482.917,50.417l-432.5,432.5" style="fill:none;stroke:#000;stroke-width:25px;stroke-linecap:round;stroke-linejoin:round;stroke-miterlimit:1.5;"/><path d="M482.917,266.667l-432.5,-0" style="fill:none;stroke:#000;stroke-width:25px;stroke-linecap:round;stroke-linejoin:round;stroke-miterlimit:1.5;"/><path d="M266.667,50.417l-0,432.5" style="fill:none;stroke:#000;stroke-width:25px;stroke-linecap:round;stroke-linejoin:round;stroke-miterlimit:1.5;"/></g><g id="Layer11" serif:id="Layer1"><path d="M604.583,50.417l432.5,432.5" style="fill:none;stroke:#000;stroke-width:25px;stroke-linecap:round;stroke-linejoin:round;stroke-miterlimit:1.5;"/><path d="M1037.08,50.417l-432.5,432.5" style="fill:none;stroke:#000;stroke-width:25px;stroke-linecap:round;stroke-linejoin:round;stroke-miterlimit:1.5;"/><path d="M1037.08,266.667l-432.5,-0" style="fill:none;stroke:#000;stroke-width:25px;stroke-linecap:round;stroke-linejoin:round;stroke-miterlimit:1.5;"/><path d="M820.833,50.417l0,432.5" style="fill:none;stroke:#000;stroke-width:25px;stroke-linecap:round;stroke-linejoin:round;stroke-miterlimit:1.5;"/></g><g id="Layer12" serif:id="Layer1"><path d="M1158.75,50.417l432.5,432.5" style="fill:none;stroke:#000;stroke-width:25px;stroke-linecap:round;stroke-linejoin:round;stroke-miterlimit:1.5;"/><path d="M1591.25,50.417l-432.5,432.5" style="fill:none;stroke:#000;stroke-width:25px;stroke-linecap:round;stroke-linejoin:round;stroke-miterlimit:1.5;"/><path d="M1591.25,266.667l-432.5,-0" style="fill:none;stroke:#000;stroke-width:25px;stroke-linecap:round;stroke-linejoin:round;stroke-miterlimit:1.5;"/><path d="M1375,50.417l0,432.5" style="fill:none;stroke:#000;stroke-width:25px;stroke-linecap:round;stroke-linejoin:round;stroke-miterlimit:1.5;"/></g><g id="Layer13" serif:id="Layer1"><path d="M1712.92,50.417l432.5,432.5" style="fill:none;stroke:#000;stroke-width:25px;stroke-linecap:round;stroke-linejoin:round;stroke-miterlimit:1.5;"/><path d="M2145.42,50.417l-432.5,432.5" style="fill:none;stroke:#000;stroke-width:25px;stroke-linecap:round;stroke-linejoin:round;stroke-miterlimit:1.5;"/><path d="M2145.42,266.667l-432.5,-0" style="fill:none;stroke:#000;stroke-width:25px;stroke-linecap:round;stroke-linejoin:round;stroke-miterlimit:1.5;"/><path d="M1929.17,50.417l-0,432.5" style="fill:none;stroke:#000;stroke-width:25px;stroke-linecap:round;stroke-linejoin:round;stroke-miterlimit:1.5;"/></g><g id="Layer14" serif:id="Layer1"><path d="M2267.08,50.417l432.5,432.5" style="fill:none;stroke:#000;stroke-width:25px;stroke-linecap:round;stroke-linejoin:round;stroke-miterlimit:1.5;"/><path d="M2699.58,50.417l-432.5,432.5" style="fill:none;stroke:#000;stroke-width:25px;stroke-linecap:round;stroke-linejoin:round;stroke-miterlimit:1.5;"/></g></svg>