<?xml version="1.0" encoding="UTF-8" standalone="no"?><!DOCTYPE svg PUBLIC "-//W3C//DTD SVG 1.1//EN" "http://www.w3.org/Graphics/SVG/1.1/DTD/svg11.dtd"><svg width="100%" height="100%" viewBox="0 0 1500 1000" version="1.1" xmlns="http://www.w3.org/2000/svg" xmlns:xlink="http://www.w3.org/1999/xlink" xml:space="preserve" xmlns:serif="http://www.serif.com/" style="fill-rule:evenodd;clip-rule:evenodd;stroke-linecap:round;stroke-linejoin:round;stroke-miterlimit:1.5;"><path d="M75,100l-25,0l0,850l1400,0l0,-850l-25,-0" style="fill:none;stroke:#8b6cef;stroke-width:50px;"/><path d="M254.219,399.948l150,-0l-0,450l166.562,-0l0,-549.896l-316.562,0l-0,99.896Z" style="fill:#fff;fill-rule:nonzero;"/><path d="M800.052,736.715c0,75.772 47.47,113.233 141.578,113.233l233.406,-0c94.108,-0 141.579,-37.461 141.579,-113.233l-0,-323.432c-0,-75.77 -47.471,-113.231 -141.579,-113.231l-233.406,0c-94.108,0 -141.578,37.461 -141.578,113.231l0,323.432Zm166.563,-10.003l-0,-303.426c-0,-15.838 10.005,-23.338 29.183,-23.338l125.07,-0c19.178,-0 29.184,7.5 29.184,23.338l0,303.426c0,15.838 -10.006,23.34 -29.184,23.34l-125.07,0c-19.178,0 -29.183,-7.502 -29.183,-23.34Z" style="fill:#fff;fill-rule:nonzero;"/><path d="M131.012,181.988l39.976,-0l-0,-47l58.021,-0c22.586,-0 33.978,-8.991 33.978,-27.178l0,-30.62c0,-18.187 -11.392,-27.177 -33.978,-27.177l-97.997,-0l0,131.975Zm39.976,-70.976l-0,-37.025l45.021,0.001c4.603,-0.001 7.003,1.801 7.003,5.603l0,25.818c0,3.802 -2.4,5.604 -7.003,5.604l-45.022,-0Z" style="fill:#fff;fill-rule:nonzero;"/><path d="M287.013,181.988l39.974,-0l0,-50l21.811,-0l33.013,50l43.177,-0l-32.984,-50c17.789,-2.198 26.983,-10.789 26.983,-27.178l0,-27.62c0,-18.187 -11.392,-27.177 -33.978,-27.177l-97.997,-0l0,131.975Zm39.976,-73.976l-0,-34.025l45.021,0.001c4.603,-0.001 7.003,1.801 7.003,5.604l0,22.816c0,3.803 -2.4,5.605 -7.003,5.605l-45.022,-0.001Z" style="fill:#fff;fill-rule:nonzero;"/><path d="M445.013,154.812c-0.001,18.185 11.392,27.176 33.978,27.176l70.018,-0c22.586,-0 33.978,-8.991 33.978,-27.176l0,-77.624c0,-18.185 -11.392,-27.176 -33.978,-27.176l-70.018,0.001c-22.586,-0 -33.978,8.99 -33.978,27.175l-0,77.624Zm39.975,-2.401l-0,-72.822c-0,-3.802 2.401,-5.602 7.002,-5.602l44.019,0.001c4.602,-0.001 7.004,1.799 7.004,5.601l-0,72.822c-0,3.801 -2.402,5.601 -7.004,5.601l-44.019,0c-4.601,0 -7.002,-1.8 -7.002,-5.601Z" style="fill:#fff;fill-rule:nonzero;"/><path d="M611.013,154.81c-0,18.187 11.392,27.178 33.978,27.178l101.996,-0l0,-81.976l-65.986,0.001l-0,23.974l26.012,0l-0,34.025l-49.022,0c-4.602,0 -7.003,-1.801 -7.003,-5.604l-0,-72.815c-0,-3.804 2.401,-5.605 7.003,-5.605l81.001,-0l0,-23.975l-94.001,-0c-22.586,-0 -33.978,8.99 -33.978,27.178l-0,77.619Z" style="fill:#fff;fill-rule:nonzero;"/><path d="M775.012,181.988l39.975,-0l0,-50l21.811,-0l33.013,50l43.176,-0l-32.983,-50c17.789,-2.198 26.983,-10.789 26.983,-27.178l0,-27.62c0,-18.187 -11.392,-27.177 -33.978,-27.177l-97.997,-0l0,131.975Zm39.975,-73.976l0,-34.025l45.022,0.001c4.603,-0.001 7.003,1.801 7.003,5.604l0,22.816c0,3.803 -2.4,5.605 -7.003,5.605l-45.022,-0.001Z" style="fill:#fff;fill-rule:nonzero;"/><path d="M933.012,181.988l127.975,-0l0,-23.976l-88,0l0,-33.025l78,0.001l0,-23.975l-78,-0.001l0,-27.025l88,0.001l0,-23.975l-127.975,-0l0,131.975Z" style="fill:#fff;fill-rule:nonzero;"/><path d="M1083.01,181.988l97.996,-0c22.586,-0 33.978,-8.991 33.978,-27.178l0,-26.62c0,-18.187 -11.392,-27.177 -33.978,-27.177l-51.018,-0.001c-4.602,0.001 -7.004,-1.801 -7.004,-5.605l0,-15.814c0,-3.804 2.402,-5.605 7.004,-5.605l75.003,-0l-0,-23.975l-88.003,-0c-22.586,-0 -33.978,8.99 -33.978,27.177l-0,20.62c-0,18.187 11.392,27.178 33.978,27.178l51.018,-0c4.603,-0 7.004,1.801 7.004,5.604l-0,21.816c-0,3.803 -2.401,5.605 -7.004,5.605l-84.996,-0l-0,23.975Z" style="fill:#fff;fill-rule:nonzero;"/><path d="M1239.01,181.988l97.996,-0c22.586,-0 33.978,-8.991 33.978,-27.178l0,-26.62c0,-18.187 -11.392,-27.177 -33.978,-27.177l-51.018,-0.001c-4.602,0.001 -7.004,-1.801 -7.004,-5.605l0,-15.814c0,-3.804 2.402,-5.605 7.004,-5.605l75.003,-0l-0,-23.975l-88.003,-0c-22.586,-0 -33.978,8.99 -33.978,27.177l-0,20.62c-0,18.187 11.392,27.178 33.978,27.178l51.018,-0c4.603,-0 7.004,1.801 7.004,5.604l-0,21.816c-0,3.803 -2.401,5.605 -7.004,5.605l-84.996,-0l-0,23.975Z" style="fill:#fff;fill-rule:nonzero;"/></svg>