<?xml version="1.0" encoding="UTF-8" standalone="no"?><!DOCTYPE svg PUBLIC "-//W3C//DTD SVG 1.1//EN" "http://www.w3.org/Graphics/SVG/1.1/DTD/svg11.dtd"><svg width="100%" height="100%" viewBox="0 0 6250 4167" version="1.1" xmlns="http://www.w3.org/2000/svg" xmlns:xlink="http://www.w3.org/1999/xlink" xml:space="preserve" xmlns:serif="http://www.serif.com/" style="fill-rule:evenodd;clip-rule:evenodd;stroke-linecap:round;stroke-linejoin:round;stroke-miterlimit:1.5;"><path d="M1250,416.667l-1041.67,-0l0,3541.67l5833.33,0l-0,-3541.67l-1041.67,-0" style="fill:none;stroke:#28aae1;stroke-width:208.33px;"/><path d="M2048.83,3541.45l2152.34,-0l0,-416.233l-1458.33,0l-0,-476.057c-0,-66.023 41.69,-97.293 121.596,-97.293l746.828,-0c392.115,-0 589.908,-156.088 589.908,-471.84l0,-357.972c0,-315.751 -197.793,-471.837 -589.908,-471.837l-1388.93,-0l-0,416.232l1163.23,0c79.906,0 121.599,31.277 121.599,97.311l0,274.561c0,66.033 -41.693,97.312 -121.599,97.312l-746.825,0c-392.116,0 -589.909,156.086 -589.909,471.828l0,933.988Z" style="fill:#fff;fill-rule:nonzero;"/><path d="M2100,758.281l163.333,0l50,-116.666l256.667,-0l50,116.666l163.333,0l-237.5,-549.896l-208.333,0l-237.5,549.896Zm256.667,-216.562l85,-195.834l85,195.834l-170,-0Z" style="fill:#fff;fill-rule:nonzero;"/><path d="M2845.89,758.281l291.616,0c189.172,0 283.28,-75.754 283.28,-226.601l0,-96.696c0,-150.844 -94.108,-226.599 -283.28,-226.599l-291.616,0l0,549.896Zm166.563,-99.896l-0,-350.104l91.706,0c100.042,0 150.065,40.01 150.065,120.034l-0,110.034c-0,80.024 -50.023,120.036 -150.065,120.036l-91.706,0Z" style="fill:#fff;fill-rule:nonzero;"/><path d="M3529.22,758.281l291.616,0c189.172,0 283.28,-75.754 283.28,-226.601l-0,-96.696c-0,-150.844 -94.108,-226.599 -283.28,-226.599l-291.616,0l-0,549.896Zm166.562,-99.896l0,-350.104l91.706,0c100.043,0 150.065,40.01 150.065,120.034l0,110.034c0,80.024 -50.022,120.036 -150.065,120.036l-91.706,0Z" style="fill:#fff;fill-rule:nonzero;"/></svg>